<?xml version="1.0" standalone="no"?>
<!DOCTYPE svg PUBLIC "-//W3C//DTD SVG 20010904//EN"
 "http://www.w3.org/TR/2001/REC-SVG-20010904/DTD/svg10.dtd">
<svg version="1.0" xmlns="http://www.w3.org/2000/svg"
 width="374.000000pt" height="174.000000pt" viewBox="0 0 374.000000 174.000000"
 preserveAspectRatio="xMidYMid meet">

<g transform="translate(0.000000,174.000000) scale(0.100000,-0.100000)"
fill="#000000" stroke="none">
<path d="M0 870 l0 -870 186 0 186 0 79 80 c96 96 194 150 274 151 28 0 136
-15 240 -34 105 -20 242 -43 305 -51 133 -18 223 -56 268 -112 l27 -34 1088 0
1087 0 0 870 0 870 -392 0 -393 0 -54 -70 c-59 -75 -113 -124 -158 -141 -43
-16 -156 -12 -273 11 -58 11 -187 25 -288 30 -297 16 -358 39 -365 137 l-2 33
-907 0 -908 0 0 -870z"/>
</g>
</svg>
